<?xml version="1.0" encoding="UTF-8" standalone="no"?>
<svg
   width="800"
   height="1580"
   viewBox="0 0 800 1580"
   version="1.1"
   id="svg21"
   sodipodi:docname="m_back.svg"
   inkscape:version="1.3.2 (091e20e, 2023-11-25, custom)"
   xmlns:inkscape="http://www.inkscape.org/namespaces/inkscape"
   xmlns:sodipodi="http://sodipodi.sourceforge.net/DTD/sodipodi-0.dtd"
   xmlns="http://www.w3.org/2000/svg"
   xmlns:svg="http://www.w3.org/2000/svg">
  <defs
     id="defs21" />
  <sodipodi:namedview
     id="namedview21"
     pagecolor="#505050"
     bordercolor="#ffffff"
     borderopacity="1"
     inkscape:showpageshadow="0"
     inkscape:pageopacity="0"
     inkscape:pagecheckerboard="1"
     inkscape:deskcolor="#505050"
     inkscape:zoom="0.54493671"
     inkscape:cx="400.04646"
     inkscape:cy="790"
     inkscape:window-width="1920"
     inkscape:window-height="1057"
     inkscape:window-x="-8"
     inkscape:window-y="-8"
     inkscape:window-maximized="1"
     inkscape:current-layer="surface1" />
  <g
     id="surface1"
     inkscape:label="surface1">
    <path
       style="fill:#ff3021;fill-opacity:1;fill-rule:evenodd;stroke:none"
       d="m 332.53125,80.84375 c -0.625,43.1875 9.97266,91.38281 42.87891,121.46094 22.55859,13.23437 54.04687,5.42968 65.96875,-18.44141 27.28515,-46.92969 36.47656,-108.230468 12.89062,-158.503905 -28.19531,-40.582031 -108.99219,-31.761719 -116.76172,21.46875 -2.97656,11.101563 -4.54687,22.539063 -4.97656,34.015625 z m 0,0"
       id="path1"
       inkscape:label="back_head" />
    <path
       style="fill:#ff30ff;fill-opacity:1;fill-rule:evenodd;stroke:none"
       d="m 345.08203,269.85156 c 8.55078,12.57422 30.10156,8.40625 43.60156,11.95313 21.76953,-0.004 46.00391,0.85937 65.54297,-9.5 -5.22265,-32.21875 -15.82812,-65.3086 -9.74219,-98.79688 -0.89453,-11.40234 9.4375,-31.2539 -8.86328,-32.70312 -22.4375,-3.9375 -46.13281,-2.125 -68.78125,-0.79688 -12.00781,0.82813 -17.23828,9.78125 -12.27343,21.0625 5.6914,37 0.85937,73.07031 -9.48438,108.78125 z m 0,0"
       id="path2"
       inkscape:label="back_neck" />
    <path
       style="fill:#0fffa8;fill-opacity:1;fill-rule:evenodd;stroke:none"
       d="m 184.84766,343.22656 c -3.00391,19.04297 10.20312,44.69922 32.52343,36.85938 34.1875,-14.06641 76.26563,-20.2461 97.15625,-54.5 12.48438,-18.66016 31.23047,-40.53516 25.88282,-64.52735 -19.25,-20.72265 -51.53125,-5.39062 -75.39063,-3.22656 C 228.05469,262 194.99609,288.75 188.09766,326.0625 c -1.83985,5.52734 -1.82422,11.52344 -3.25,17.16406 z m 0,0"
       id="path3"
       inkscape:label="left_shoulder" />
    <path
       style="fill:#1ef0a8;fill-opacity:1;fill-rule:evenodd;stroke:none"
       d="m 103.29688,552.0625 c -1.21875,24.30469 32.96093,24.09766 44.89453,9.27344 51.27734,-53.80078 82.8164,-122.74219 117.90625,-187.40235 13.95703,-21.79687 3.28515,-52.27734 -22.31641,-58.60156 -28.65625,-12.0625 -48.21484,19.85156 -58.83594,41.48828 -29.59765,55.82422 -59.12109,111.99219 -75.95703,173.25781 -2.19531,7.22657 -5.14844,14.3711 -5.6914,21.98438 z m 0,0"
       id="path4"
       inkscape:label="left_upper_arm" />
    <path
       style="fill:#ff00a8;fill-opacity:1;fill-rule:evenodd;stroke:none"
       d="m 19.917969,728.74609 c 1.289062,16.83985 32.769531,25.85157 35.667969,4.67188 23.550781,-54.58985 73.382812,-91.80078 103.410152,-142.01563 9.91797,-22.57031 22.71485,-48.72656 15.51172,-73.59765 C 158.27734,492.98437 115.44922,489.625 100.20703,517.78906 58.425781,578.91797 44.160156,653.31641 20.5,722.33984 c -0.285156,2.11328 -0.460938,4.27344 -0.582031,6.40625 z m 0,0"
       id="path5"
       inkscape:label="left_lower_arm" />
    <path
       style="fill:#1e00a8;fill-opacity:1;fill-rule:evenodd;stroke:none"
       d="m 105.09766,559.22656 c 4.53125,23.17969 38.52734,19.78906 42.625,-2.03515 12.82421,-18.89063 -14.07813,-44.35547 -30.79297,-27.64454 -8.66016,6.66797 -13.17969,18.91016 -11.83203,29.67969 z m 0,0"
       id="path6"
       inkscape:label="left_elbow" />
    <path
       style="fill:#000000;fill-opacity:1;fill-rule:nonzero;stroke:none"
       d="m 28.585938,777.52344 c 3.035156,4.73828 0.75,18.08593 5.785156,19.58593 -0.707032,11.72266 7.851562,28.48438 20.304687,14.52344 6.917969,-9.48047 -8.023437,-19.52734 -4.859375,-30.51562 6.46875,-22.07422 -24.019531,-20.7461 -21.230468,-3.59375 z m -17.140626,25.29687 c -0.08203,6.8125 5.347657,16.67969 2.308594,21.65625 3.878906,2.47266 2.238282,18.66797 8.515625,15.19141 2.261719,12.90234 15.058594,20.5664 21.164063,5.41797 -6.03125,-8.58594 -13.03125,-14.26953 -15.003906,-25.25 3.339843,-3.9961 -1.386719,-14.91407 -2.59375,-20.9336 -4.796876,1.30469 -9.59375,2.61328 -14.390626,3.91797 z m -7.574218,5.58203 c 3.6875,5.64063 -0.972656,20.72657 5.871094,22.79297 -8.5,1.35938 3.890624,18.98438 5.621093,21.23828 8.003907,-3.45703 11.410157,-4.55078 1.484375,1.19141 6.308594,11.90625 12.609375,26.03906 24.832032,8.92187 C 34.019531,852.15625 27.371094,841.24609 24,828.66797 c 2.960938,-2.41406 0.589844,-21.23047 -3.96875,-23.125 -5.386719,0.95312 -10.773438,1.90625 -16.160156,2.86328 z m -1.4375,24.82422 c 5.039062,5.1836 -0.976563,26.98047 9.972656,23.28125 -2.445312,5.40235 5.359375,26.3086 11.949219,23.16406 21.011719,-1.59375 5.664062,-18.36718 1.65625,-28.65625 -6.953125,-15.71093 -1.664063,-29.75 -4.386719,-46.24609 -10.484375,-1.86719 -25.507812,-3.35547 -18.4375,12.6875 -1.296875,5.08984 3.667969,11.5625 -0.753906,15.76953 z M 3.25,824.84766 c 3.457031,4.76562 -5.574219,22.1914 3.457031,21.30859 -0.601562,12.46875 2.9375,30.64844 19.378907,18.92969 C 28.351562,850.6875 16.53125,834.49219 24.296875,820.14844 35.972656,806.32422 21.367188,790.49219 9.351562,800.92578 6.40625,808.64453 8.28125,818.37891 3.25,824.84766 Z M 0.675781,795.875 c -3.855469,14.64844 16.074219,26.42187 25.210938,13.83594 10.457031,-13.53516 20.636719,-28.57813 27.070312,-44.67578 5.664063,-16.71485 5.582031,-46.28907 -18.78125,-45.08204 -20.644531,3.73829 -20.628906,31.19532 -28.152343,46.75782 -2.519532,9.55468 -4.964844,19.25 -5.347657,29.16406 z m 0,0"
       id="path7"
       inkscape:label="left_hand" />
    <path
       style="fill:#0fffa8;fill-opacity:1;fill-rule:evenodd;stroke:none"
       d="m 458.15625,268.07031 c 5.08984,33.80469 28.23828,64.4336 54.9375,84.75391 24.44922,10.98828 49.86719,21.61328 75.76172,28.41406 28.00781,0.96094 29.74219,-35.49609 23.03906,-55.17187 -7.06641,-38.75 -42.31641,-65.22266 -80.39062,-68.94922 -22.89844,-2.22266 -53.69141,-16.04688 -71.92188,3.9414 l -0.66797,2.79297 c 0,0 -0.7539,4.21875 -0.7539,4.21875 z m 0,0"
       id="path8"
       inkscape:label="right_shoulder" />
    <path
       style="fill:#1e000c;fill-opacity:1;fill-rule:evenodd;stroke:none"
       d="m 527.79687,352.71484 c 10.16797,42.48438 39.29688,77.58203 57.66016,116.80469 22.34375,33.97656 41.52344,72.98438 74.69141,97.73828 14.14843,10.89453 41.70312,1.8711 36.05468,-18.69922 -15.80859,-61.52343 -41.91796,-119.625 -72.55078,-175.125 -13.63672,-22.24609 -23.9375,-59.1875 -54.98828,-60.54687 -20.26953,1.05078 -43.32812,17.36328 -40.86719,39.82812 z m 0,0"
       id="path9"
       inkscape:label="right_upper_arm" />
    <path
       style="fill:#1eff0f;fill-opacity:1;fill-rule:evenodd;stroke:none"
       d="m 622.88672,532.63281 c 3.76953,44.78125 30.10937,82.53906 60.5039,113.85547 24.78125,29.79297 50.625,59.67969 65.64063,95.75781 12.26953,11.2461 37.69531,-5.48828 29.91797,-21.95312 -24.36719,-69.69922 -37.96094,-145.79297 -82.28516,-206.5 -17.17969,-26.21094 -63.63672,-18.4375 -73.3164,10.04297 l -0.14844,3.53906 -0.0898,2.13672 z m 0,0"
       id="path10"
       inkscape:label="right_lower_arm" />
    <path
       style="fill:#1e00a8;fill-opacity:1;fill-rule:evenodd;stroke:none"
       d="m 649.80859,540.77734 c -5.14453,22.04688 24.03907,48.50391 41.35547,26.67969 16.3086,-21.83203 -17.59765,-59.82812 -37.625,-34.91016 -1.24609,2.7461 -2.48828,5.48829 -3.73047,8.23047 z m 0,0"
       id="path11"
       inkscape:label="right_elbow" />
    <path
       style="fill:#000000;fill-opacity:1;fill-rule:nonzero;stroke:none"
       d="m 756.5625,845.08594 c 6.56641,14.20312 16.96094,8.60156 21.23828,-4.07422 l -0.0781,-1.34375 c 6.28125,2.7539 5.78125,-13.10938 8.92968,-16.97656 l -1.48828,-0.6836 c 18.35156,-26.4375 -27.38672,-30.8789 -13.59765,-2.17187 -2.05469,11.0625 -8.86329,16.57422 -15.00391,25.25 z m 1.75,17.45703 c 12.16016,16.67187 18.53125,3.04297 24.83203,-8.92188 -16.66016,-11.6914 4.5,5.39844 4.13672,-4.38281 -0.94922,-4.97656 11.99219,-16.89844 3.05859,-18.03125 5.87891,-6.85937 11.95703,-31.32812 -8.16015,-25.27344 -8.49219,-2.82031 -8.38282,20.6836 -6.1836,22.73438 -3.39843,12.80078 -9.91406,23.30859 -17.68359,33.875 z m 5.74609,9.97265 c 8.78907,13.57813 21.41797,8.47657 22.23047,-7.47656 8.51953,-2.47265 -4.85547,-12.38281 5.62891,-7.8125 6.38672,-17.1875 3.23437,-33.02734 5.57422,-51.29297 -19.61328,-11.25 -23.46094,7.59375 -20.60157,23.57032 5.03907,12.97656 -8.92968,30.64843 -12.83203,43.01171 z m 8.3086,-71.39453 c 4.78125,19.96094 9.3125,40.125 0.33984,60.00391 5.41016,13.95312 25.55469,6.26562 20.42969,-9.88672 3.48047,-1.71094 -3.50781,-7.5625 3.17187,-5.10156 3.37891,-16.40625 -4.05859,-28.56641 -5.32031,-44.62891 -1.61719,-8.77734 -13.35156,0.92969 -18.62109,-0.38672 z m -28.67578,1.89844 c -3.10938,16.48828 24.16796,18.37891 22.01953,-1.08594 -1.94141,-7.1914 4.78515,-6.17578 3.55468,-14.85937 6.56641,-13.45313 0.44922,-24.03906 -15.39843,-22.41797 -5.40625,13.15234 -1.04688,26.84766 -10.17578,38.36328 z m 0.20312,-56.91016 c 0.58594,24.48047 16.57422,44.53125 29.98438,63.36329 9.02734,12.76953 29.33984,1.34375 25.44531,-13.59766 -3.375,-25.09375 -9.16016,-52.85938 -24.96875,-72.92188 -15.66016,-10.94531 -33.41016,6.57032 -30.46485,23.15625 z m 0,0"
       id="path12"
       inkscape:label="right_hand" />
    <path
       style="fill:#ff30ff;fill-opacity:1;fill-rule:evenodd;stroke:none"
       d="m 290.69141,647.89453 c -2.36329,44.53516 37.90625,77.47266 79.3789,81.86719 48.02735,7.51953 111.89844,-0.6875 133.66406,-50.92969 C 519.66797,629.35547 492,578.96875 498.5625,528.50391 c 4.28125,-45.72266 -1.24219,-101.27735 -44.71094,-127.33985 -51.04297,-35.67578 -131.68359,-8.3164 -147.25781,52.9336 -13.39063,49.54296 2.34766,102.05468 -11.23438,151.92968 -2.16015,13.91797 -4.23046,27.76172 -4.66796,41.86719 z m 0,0"
       id="path13"
       inkscape:label="lower_back" />
    <path
       style="fill:#ffff00;fill-opacity:1;fill-rule:evenodd;stroke:none"
       d="m 249.6875,308.76172 c -3.75781,62.28125 14.30078,125.62109 46.53125,178.53906 20.08594,23.75391 54.19141,31.05469 83.74219,35.6875 41.73437,3.48828 88.3164,-3.73437 120.72265,-31.58984 34.98828,-53.14844 52.89844,-118.70703 49.32813,-182.44532 0.97656,-37.48046 -32.71094,-59.8164 -61.77344,-75.85937 C 451.26953,206.70703 402.08594,187.80078 357.90625,208 c -33.61328,16.41016 -67.92188,34.67578 -94.82813,61.03516 -8.875,11.37109 -12.19531,25.63281 -13.39062,39.72656 z m 0,0"
       id="path14"
       inkscape:label="back" />
    <path
       style="fill:#21ae0f;fill-opacity:1;fill-rule:evenodd;stroke:none"
       d="m 246.10937,880.17969 c 1.52344,62.10547 11.29297,123.78901 19.9961,185.16011 2.89453,27.3711 35.07422,57.0821 61.55469,37.4024 26.85546,-28.4961 20.74218,-72.1797 32.27734,-107.37501 21.69141,-71.72266 28.59375,-146.53516 28.44922,-221.19141 1.24609,-40.04297 -0.3711,-88.43359 -32.42969,-117.03516 -28.55469,-23.28125 -74.13672,-5.625 -83.96484,28.82813 -19.07422,62.25 -23.71875,129.38281 -25.88282,194.21094 z m 0,0"
       id="path15"
       inkscape:label="right_upper_leg" />
    <path
       style="fill:#ff0c00;fill-opacity:1;fill-rule:evenodd;stroke:none"
       d="m 200.15625,1557.5625 c 0.78516,22.7188 31.37891,17.2305 46.42578,21.2109 11.17578,2.086 25.40625,2.3086 32.12109,-8.0937 14.32032,-0.1602 33.1875,-5.1992 31.02735,-23.6094 -8.58985,-40.8945 0.76953,-86.8594 -22.84766,-123.543 -8.28515,-15.9492 -23.98047,-0.9062 -25.93359,10.9493 -15.32031,33.6484 -14.45313,77.7968 -47.84375,100.625 -5.91797,6.2422 -12.82422,13.2656 -12.94922,22.4609 z m 0,0"
       id="path16"
       inkscape:label="left_feet" />
    <path
       style="fill:#ff0cfa;fill-opacity:1;fill-rule:evenodd;stroke:none"
       d="m 240.96484,1221.1953 c 8.04688,86.832 7.01563,174.0977 8.46485,261.1133 -1.28516,21.9102 28.9375,46.9219 46.15234,26.3242 10.55078,-32.6601 3.72266,-68.832 10.875,-102.5351 10.18359,-89.6954 53.67188,-176.8711 37.05859,-268.5157 -7.5664,-32.6875 -0.38281,-70.2148 -19.36718,-99.3476 -16.83203,-23.7383 -51.94141,-7.9219 -56.50391,17.4492 -15.78125,53.4023 -28.53125,109.4961 -26.67969,165.5117 z m 0,0"
       id="path17"
       inkscape:label="left_lower_leg" />
    <path
       style="fill:#1e00a8;fill-opacity:1;fill-rule:evenodd;stroke:none"
       d="m 410.89844,746.98437 c 1.03906,81.23829 2.94922,163.57422 27.73437,241.75391 10.92969,35.48442 7.94531,75.85942 27.83985,108.10942 19.48437,25.9257 57.96875,6.0859 64.14843,-20.8438 12.22266,-46.5625 13.01563,-95.57031 20.38672,-143.11328 7.32422,-78.19531 -1.68359,-157.5 -18.62109,-233.86718 -6.07031,-31.53516 -35.88672,-60.51172 -69.72266,-50.83594 -42.07812,10.58203 -48.18359,62.85156 -51.76562,98.79687 z m 0,0"
       id="path18"
       inkscape:label="right_upper_leg" />
    <path
       style="fill:#0fffff;fill-opacity:1;fill-rule:evenodd;stroke:none"
       d="m 490.26562,1547.0508 c -1.76171,15.8203 13.42188,23.5469 27.07422,23.039 8.38282,-0.6445 10.5,11.7891 20.10938,9.668 19.44922,-2.25 41.99609,-0.1172 58.83594,-11.2187 12.97656,-21.5508 -15.66407,-36.7422 -27.125,-50.9024 -21.09766,-30.332 -16.22657,-73.0625 -41.78907,-100.5586 -19.59375,-2.082 -23.39453,26.6524 -28.05468,40.711 -3.76954,29.7148 -4.55079,59.6523 -9.05079,89.2656 z m 0,0"
       id="path19"
       inkscape:label="right_feet" />
    <path
       style="fill:#0fffa8;fill-opacity:1;fill-rule:evenodd;stroke:none"
       d="m 452.94531,1202.4883 c 11.70313,92.6055 47.1875,181.5078 46.19531,275.8672 -2.48046,16.5937 4.85157,44.0625 26.91407,37.1562 34.37109,-12.2969 23.91797,-56.6875 25.38672,-84.7383 -2.29688,-78.414 5.61328,-156.5507 7.75,-234.789 -4.31641,-51.2383 -12.48047,-103.4102 -31.86719,-151.211 -10.25,-24.0742 -46.4961,-23.832 -56.25391,0.625 -12.89062,36.2696 -10.10937,76.2735 -17.12109,113.9727 -1.39453,14.3789 -1.55078,28.6875 -1.00391,43.1172 z m 0,0"
       id="path20"
       inkscape:label="right_lower_leg" />
    <path
       style="fill:#1e00ff;fill-opacity:1;fill-rule:evenodd;stroke:none"
       d="m 273.32031,703.07812 c 2.09766,27.85157 25.55469,47.56641 29.89453,75.02344 9.07032,34.97266 52.54297,38.66016 82.42969,34.97656 33.73438,-1.90234 74.60938,9.57813 101.88672,-16.99609 13.88672,-21.85937 16.67578,-49.05469 32.77344,-69.98047 12.73437,-32.85156 4.10547,-72.92187 -16.22266,-101.04687 -26.58594,-27.15625 -67.78516,-32.58985 -103.99609,-35.21485 -36.28907,2.31641 -77.44922,7.9961 -104.08985,35.125 -17.20703,21.55078 -22.48437,51.20313 -22.67578,78.11328 z m 0,0"
       id="path21"
       inkscape:label="butt" />
  </g>
</svg>
