<?xml version="1.0" encoding="UTF-8" standalone="no"?>
<svg
   width="797.41608"
   height="1580.1099"
   viewBox="0 0 5.698605 11.31548"
   version="1.1"
   id="m_front"
   xmlns="http://www.w3.org/2000/svg"
   xmlns:svg="http://www.w3.org/2000/svg">
  <defs
     id="defs1" />
  <path
     fill-rule="evenodd"
     fill="#000000"
     stroke="#ff5555"
     stroke-width="0"
     opacity="1"
     d="m 2.4717816,1.9383466 c 0.03288,0.078608 0.169525,0.04939 0.2408686,0.074382 0.1780344,0.010447 0.3694666,0.0098 0.5355094,-0.05939 C 3.247183,1.7692919 3.1501328,1.5757713 3.1762936,1.3818472 3.1769542,1.2703299 3.1897139,1.1589467 3.1936365,1.0476499 3.0452007,0.95731965 2.8583301,1.0287157 2.6944844,1.0037948 c -0.068151,0.013545 -0.2147667,0.016614 -0.1593985,0.1281585 0.040759,0.2750654 0.02037,0.5409322 -0.063304,0.8063933 z"
     id="neck" />
  <path
     fill-rule="evenodd"
     fill="#00aa00"
     stroke="#555555"
     stroke-width="0"
     opacity="1"
     d="M 0.76608341,3.9744548 C 0.75724517,4.1350466 0.98164276,4.1462087 1.0691558,4.0519441 1.4228675,3.6969837 1.6270511,3.225584 1.8776477,2.798061 1.9699555,2.6579825 2.0400266,2.4283867 1.8631091,2.3208723 1.7335357,2.2131256 1.5281214,2.2411524 1.4494695,2.3960903 1.2641677,2.699728 1.1112331,3.0244288 0.96450665,3.3484078 0.89564204,3.5549984 0.80954768,3.7609247 0.76608341,3.9744548 Z"
     id="rightUpperArm" />
  <path
     fill-rule="evenodd"
     fill="#0aa000"
     stroke="#555555"
     stroke-width="0"
     opacity="1"
     d="M 1.3326014,2.543599 C 1.3187751,2.6950001 1.4874245,2.7886446 1.6152384,2.7144841 1.8553554,2.6202445 2.1384263,2.5638269 2.2803702,2.3224229 2.3645526,2.1940348 2.495544,2.0468741 2.4595318,1.8824168 2.3316154,1.7364481 2.1051856,1.8380347 1.94217,1.8476122 1.6770119,1.8762941 1.4087331,2.039599 1.3569505,2.3188684 c -0.02018,0.072953 -0.02693,0.1492167 -0.024349,0.2247306 z"
     id="rightShoulder" />
  <path
     fill-rule="evenodd"
     fill="#aaaaaa"
     stroke="#555555"
     stroke-width="0"
     opacity="1"
     d="M 0.136203,5.220061 C 0.1387757,5.3367935 0.35163873,5.4169098 0.38844745,5.279723 0.568399,4.86342 0.96989018,4.5972946 1.1765259,4.1998291 1.2303162,4.0403745 1.3599906,3.8215774 1.2256273,3.6709669 1.0821631,3.5362112 0.8282586,3.5544038 0.73113526,3.7364179 0.43419087,4.1669477 0.32705666,4.6900884 0.14382428,5.1725158 c -4.527e-4,0.016222 -0.006736,0.031426 -0.007621,0.047545 z"
     id="rightLowerArm" />
  <path
     id="rightHand"
     d="M 0.24576918,5.1645812 C 0.17903865,5.168195 0.11703281,5.2211656 0.11068697,5.289107 0.07735874,5.3920516 0.03568003,5.4928285 0.014935,5.5995411 c -0.00899043,0.049147 -0.01663901,0.098848 -0.02087907,0.1482124 0.01555656,0.037414 0.01413638,0.07032 0.01208289,0.1106326 0.00341219,0.035104 0.00653334,0.075482 -0.00728657,0.1037716 0.00749069,0.027446 -0.01664368,0.084364 0.02015159,0.1113766 0.01758962,0.044811 0.0020873,0.1003645 0.03766486,0.1385615 0.02179704,0.015488 0.04590881,0.013166 0.04571287,0.046728 0.006323,0.056673 0.0804156,0.073863 0.11114883,0.026876 0.0363894,-0.012239 0.009588,-0.057592 0.0491529,-0.064288 0.0442658,-0.024781 0.0144124,-0.064239 -0.009102,-0.090035 0.0412804,-0.00759 0.0796437,-0.054458 0.0556254,-0.095851 -0.0235852,-0.041826 -0.0755329,-0.063737 -0.0857703,-0.114065 -0.0145063,-0.045817 -0.0145224,-0.094388 -0.020636,-0.1416421 0.009437,-0.015878 0.0218178,-0.052376 0.0268078,-0.014179 0.0176774,0.041081 0.0287198,0.117135 0.0887912,0.07862 0.060094,-0.020271 0.0638624,-0.099211 0.0279646,-0.1431018 -0.0269271,-0.04757 -0.0321051,-0.1130736 -0.0104941,-0.162486 0.0438935,-0.091141 0.0729112,-0.1999367 0.0365277,-0.2984465 -0.0194601,-0.050027 -0.0741286,-0.079838 -0.1266286,-0.075643 z" />
  <path
     fill-rule="evenodd"
     fill="#000000"
     stroke="#555555"
     stroke-width="0"
     opacity="1"
     d="M 3.8032612,2.5471505 C 3.8787812,2.8489138 4.0812,3.1006485 4.2124878,3.3799445 4.3716138,3.623385 4.5131567,3.8983099 4.7497047,4.0751874 4.8607921,4.1602045 5.0677144,4.0756983 5.0062862,3.918712 4.8882753,3.4920264 4.7121784,3.0859826 4.4945379,2.7010376 4.3910621,2.5401996 4.3200677,2.2614995 4.0904735,2.2509412 c -0.14917,0.00923 -0.3076487,0.134055 -0.2872123,0.2962093 z"
     id="leftUpperArm" />
  <path
     fill-rule="evenodd"
     fill="#000000"
     stroke="#555555"
     stroke-width="0"
     opacity="1"
     d="m 3.3007743,1.9311159 c 0.034081,0.2386866 0.1917518,0.459209 0.3811049,0.6030627 0.171845,0.077367 0.3509626,0.1533383 0.533012,0.1999338 C 4.4244388,2.7378058 4.4505168,2.4569429 4.3784446,2.3116795 4.3162532,2.0425721 4.0643252,1.8695863 3.798571,1.8451682 3.6436408,1.8315704 3.4318808,1.7399504 3.3123797,1.8812956 c -0.00387,0.016607 -0.00774,0.033214 -0.011605,0.04982 z"
     id="leftShoulder" />
  <path
     fill-rule="evenodd"
     fill="#000aa0"
     stroke="#555555"
     stroke-width="0"
     opacity="1"
     d="M 4.473921,3.8080699 C 4.4905176,4.1253524 4.6711203,4.3979592 4.8864259,4.6190455 5.0688628,4.8380812 5.252149,5.0633287 5.3632093,5.326567 5.4688772,5.3960287 5.6393254,5.2614026 5.5658664,5.1376484 5.3998529,4.6463543 5.3189854,4.1037074 4.9998723,3.6809115 4.8726778,3.5032905 4.5478983,3.5650843 4.4774513,3.7612997 l -0.00191,0.025282 z"
     id="leftLowerArm" />
  <path
     fill-rule="evenodd"
     fill="#00aaa0"
     stroke="#555555"
     stroke-width="0"
     opacity="1"
     d="m 3.252484,8.6435429 c 0.092124,0.681855 0.357048,1.3388913 0.3288666,2.0361101 -0.023606,0.130263 0.1147156,0.252855 0.2326249,0.16661 C 4.0361554,10.698319 3.934585,10.386543 3.9584921,10.164495 3.9439141,9.6319586 4.0014557,9.1014305 4.0084171,8.5698458 3.9690165,8.2038593 3.9111218,7.8299723 3.7678043,7.4891673 3.6992511,7.3301898 3.459174,7.3090302 3.3786049,7.4683132 3.2683496,7.6873572 3.3227283,7.9500152 3.27211,8.1852092 3.2566005,8.3376071 3.2438013,8.4902453 3.252484,8.6435429 Z"
     id="leftLowerLeg" />
  <path
     id="leftHand"
     d="m 5.4527977,5.0131226 c 0.066731,0.00361 0.1287364,0.056584 0.1350822,0.1245258 0.033328,0.1029446 0.075007,0.2037215 0.095752,0.3104341 0.00899,0.049147 0.016639,0.098848 0.020879,0.1482124 -0.015557,0.037414 -0.014136,0.07032 -0.012083,0.1106326 -0.00341,0.035104 -0.00653,0.075482 0.00729,0.1037716 -0.00749,0.027446 0.016644,0.084364 -0.020152,0.1113766 -0.01759,0.044811 -0.00209,0.1003645 -0.037665,0.1385615 -0.021797,0.015488 -0.045909,0.013166 -0.045713,0.046728 -0.00632,0.056673 -0.080416,0.073863 -0.1111488,0.026876 -0.036389,-0.012239 -0.00959,-0.057592 -0.049153,-0.064288 -0.044266,-0.024781 -0.014412,-0.064239 0.0091,-0.090035 -0.04128,-0.00759 -0.079644,-0.054458 -0.055625,-0.095851 0.023585,-0.041826 0.075533,-0.063737 0.08577,-0.114065 0.014506,-0.045817 0.014522,-0.094388 0.020636,-0.1416421 -0.00944,-0.015878 -0.021818,-0.052376 -0.026808,-0.014179 -0.017677,0.041081 -0.02872,0.117135 -0.088791,0.07862 -0.060094,-0.020271 -0.063862,-0.099211 -0.027965,-0.1431018 0.026927,-0.04757 0.032105,-0.1130736 0.010494,-0.162486 -0.043894,-0.091141 -0.072911,-0.1999367 -0.036528,-0.2984465 0.01946,-0.050027 0.074129,-0.079838 0.1266286,-0.075643 z" />
  <path
     fill-rule="evenodd"
     fill="#00ff00"
     stroke="#555555"
     stroke-width="0"
     opacity="1"
     d="m 2.9214734,5.3330523 c 0.00778,0.581234 0.013643,1.1714533 0.1975368,1.7296029 0.087208,0.2601117 0.055652,0.5609119 0.2051053,0.7977846 C 3.4622449,8.0446692 3.7390653,7.9019214 3.7858139,7.7112924 3.8785476,7.3787803 3.8818568,7.0267885 3.9350486,6.6862734 3.9857411,6.1231899 3.9161179,5.5517979 3.7848567,5.004212 3.7426596,4.7693244 3.5078918,4.5598584 3.2620788,4.6456189 2.9861569,4.7410495 2.9505242,5.0869781 2.9214734,5.3330523 Z"
     id="leftUpperLeg" />
  <path
     fill-rule="evenodd"
     fill="#000000"
     stroke="#555555"
     stroke-width="0"
     opacity="1"
     d="m 3.9572335,10.496636 c 0.081592,0.174686 -0.085309,0.358849 -0.2500571,0.258989 -0.1592033,0.01029 -0.1617576,-0.34494 -0.077536,-0.490583 0.097581,-0.162406 0.3337679,-0.02373 0.3180362,0.134557 0.00418,0.0323 0.00939,0.06441 0.00956,0.09704 z"
     id="rightAnkle-0"
     style="fill:#00ff00" />
  <path
     fill-rule="evenodd"
     fill="#000000"
     stroke="#555555"
     stroke-width="0"
     opacity="1"
     d="m 3.5257627,11.139381 c 0.00571,0.09574 0.1052822,0.114602 0.1816811,0.121202 0.097956,0.109568 0.2665323,0.01937 0.3909059,0.02494 0.115056,0.0097 0.2164408,-0.1123 0.1348885,-0.214898 -0.093717,-0.121354 -0.2237875,-0.220603 -0.2457037,-0.385357 -0.05688,-0.175364 -0.061562,-0.148373 -0.1988337,-0.284729 -0.1300481,-0.01943 -0.1609695,0.04557 -0.1955962,0.134419 -0.041616,0.214828 -0.019615,0.325476 -0.071191,0.539537 -5.641e-4,0.02179 6.141e-4,0.04333 0.00385,0.06488 z"
     id="leftFoot" />
  <path
     fill-rule="evenodd"
     fill="#000000"
     stroke="#555555"
     stroke-width="0"
     opacity="1"
     d="m 3.3562175,7.685552 c -0.00954,0.1413728 0.033809,0.3694861 0.2112752,0.3749168 0.1790134,-0.068711 0.1778848,-0.3286642 0.1111108,-0.4765179 -0.041521,-0.163805 -0.2932934,-0.1348616 -0.3057773,0.030245 -0.00689,0.02365 -0.014118,0.046724 -0.016609,0.071356 z"
     id="leftKnee" />
  <path
     fill-rule="evenodd"
     fill="#fffbbb"
     stroke="#555555"
     stroke-width="0"
     opacity="1"
     d="m 1.7272307,8.6012446 c 0.032448,0.6219743 0.082544,1.2441557 0.059989,1.8678614 -0.024626,0.161723 0.032139,0.420372 0.241981,0.404072 0.176876,-0.03983 0.1172179,-0.275781 0.1426174,-0.409035 C 2.1856543,9.8149367 2.4414713,9.2030312 2.497045,8.560701 2.4954378,8.2299045 2.4297667,7.9010558 2.3783762,7.5755476 2.3542306,7.3973468 2.1097,7.2727056 1.9843718,7.4331812 1.8286723,7.685717 1.8114391,7.9979333 1.7537369,8.2829183 1.7380103,8.3885563 1.7317423,8.4946565 1.7272307,8.6012446 Z"
     id="rightLowerLeg" />
  <path
     fill-rule="evenodd"
     fill="#000000"
     stroke="#555555"
     stroke-width="0"
     opacity="1"
     d="m 1.7896612,10.410934 c -0.081592,0.174686 0.085309,0.358849 0.2500571,0.258989 0.1592033,0.01029 0.1617576,-0.34494 0.077536,-0.490583 -0.097581,-0.162406 -0.3337679,-0.02373 -0.3180362,0.134557 -0.00418,0.0323 -0.00939,0.06441 -0.00956,0.09704 z"
     id="rightAnkle"
     style="fill:#00ff00" />
  <path
     fill-rule="evenodd"
     fill="#0ff000"
     stroke="#555555"
     stroke-width="0"
     opacity="1"
     d="M 1.7523047,6.0795032 C 1.7295738,6.6013148 1.8257356,7.1184747 1.8914329,7.6336893 1.9087919,7.8319968 2.1394174,8.0452732 2.3305788,7.9039431 2.5223355,7.7035708 2.4827782,7.3935335 2.5626827,7.1441829 2.7301499,6.5447414 2.7816497,5.919369 2.7629477,5.2992451 2.7394598,5.042241 2.6633865,4.6897607 2.3631149,4.6353019 2.1045648,4.5806114 1.905939,4.8200799 1.8765376,5.0555043 1.8032609,5.3912747 1.7770823,5.7372717 1.7523047,6.0795032 Z"
     id="rightUpperLeg" />
  <path
     fill-rule="evenodd"
     fill="#000000"
     stroke="#555555"
     stroke-width="0"
     opacity="1"
     d="m 1.3984262,11.159155 c 0.00117,0.157307 0.2126645,0.123718 0.3164238,0.148482 0.076578,0.0079 0.1693694,0.02298 0.2302723,-0.03454 0.1135365,-0.0065 0.3005069,-0.0093 0.2858183,-0.174206 -0.052104,-0.294368 0.040435,-0.375424 -0.1208819,-0.640352 -0.071884,-0.124344 -0.2501188,-0.108058 -0.2642448,-0.02003 -0.095063,0.22694 -0.086719,0.404151 -0.3230424,0.540279 -0.051103,0.05021 -0.1208504,0.102799 -0.1243453,0.18037 z"
     id="rightFoot" />
  <path
     fill-rule="evenodd"
     fill="#000000"
     stroke="#555555"
     stroke-width="0"
     opacity="1"
     d="M 1.9533538,7.7789275 C 1.939036,7.9038696 2.0413118,8.1330168 2.1932433,8.0379157 2.3369864,7.9313817 2.3484216,7.6929501 2.2676265,7.5473334 2.1740133,7.3849264 1.94743,7.5236026 1.962522,7.6818897 c -0.00401,0.032296 -0.00901,0.064412 -0.00917,0.097038 z"
     id="rightKnee" />
  <path
     fill-rule="evenodd"
     fill="#0000ff"
     stroke="#555555"
     stroke-width="0"
     opacity="1"
     d="m 1.9361121,4.9979383 c -0.00351,0.2256812 0.1994191,0.3748116 0.2419613,0.5887653 0.072709,0.2552333 0.3914908,0.2762218 0.6100462,0.243761 0.2353914,-0.00803 0.5122051,0.063304 0.7072135,-0.111927 C 3.6003678,5.5607851 3.6007387,5.3571573 3.7109527,5.2000685 3.8006698,4.9538441 3.7293832,4.6518584 3.5612122,4.4551224 3.3700678,4.2767866 3.0875008,4.2377991 2.8361614,4.2225084 2.5567579,4.243416 2.2161984,4.2829466 2.0463405,4.5346725 1.9676623,4.6744346 1.9408771,4.8394133 1.9361121,4.9979383 Z"
     id="abdomen" />
  <path
     fill-rule="evenodd"
     fill="#ff00ff"
     stroke="#555555"
     stroke-width="0"
     opacity="1"
     d="m 2.0528788,4.6391622 c -0.02021,0.3071392 0.2493909,0.5428343 0.5362565,0.5794917 0.3507226,0.059962 0.824481,0.00689 0.9871553,-0.3601311 C 3.694163,4.5057607 3.5022375,4.1432054 3.5466214,3.7826805 3.5753678,3.44776 3.5302529,3.036184 3.202673,2.8570268 2.8159048,2.60592 2.2282076,2.8495446 2.1508062,3.3095319 c -0.05897,0.3500161 0.032284,0.7117862 -0.066529,1.0592431 -0.015347,0.08967 -0.02833,0.1793282 -0.031398,0.2703872 z"
     id="lowerBody" />
  <path
     fill-rule="evenodd"
     fill="#000ff0"
     stroke="#555ff5"
     stroke-width="0"
     opacity="1"
     d="M 1.7865278,2.2412497 C 1.7503661,2.6798449 1.8759383,3.1299304 2.1074316,3.5000681 2.2747505,3.6685489 2.5302367,3.7326958 2.7621952,3.7542229 3.0584753,3.7685891 3.4070199,3.7154068 3.6019444,3.4716139 3.8280551,3.0490643 3.9995665,2.5575995 3.9211304,2.0738813 3.8364997,1.8046703 3.5296407,1.7121263 3.3175251,1.5646326 3.0150654,1.3689207 2.6128358,1.4146479 2.3297845,1.6248723 2.1055056,1.7631304 1.7987342,1.9031855 1.7917892,2.2093091 l -0.00412,0.025017 z"
     id="upperBody" />
  <path
     style="fill:#ffff00;stroke-width:0.0071612"
     d="m 2.3788851,0.72000724 c -0.018338,-0.024591 -0.028337,-0.0596969 -0.055851,-0.0624214 -0.027514,-0.002724 -0.047069,0.005134 -0.065707,0.04928 -0.018638,0.0441458 0.00168,0.15606629 0.026283,0.20369087 0.024604,0.047625 0.057562,0.072582 0.085419,0.078848 0.027857,0.00627 0.037804,-0.0013 0.052566,-0.016427 0.014762,-0.015129 0.017173,-0.040638 0.019712,-0.068992 0.00254,-0.028354 7.699e-4,-0.0670819 -0.00986,-0.09856 -0.01063,-0.0314781 -0.034224,-0.0608275 -0.052562,-0.0854185 z"
     id="path6" />
  <path
     style="fill:#ffff00;stroke-width:0.0071612"
     d="m 3.3348137,0.73738882 c 0.018338,-0.024591 0.028337,-0.0596969 0.055851,-0.0624214 0.027514,-0.002724 0.047069,0.005134 0.065707,0.04928 0.018638,0.0441458 -0.00168,0.15606629 -0.026283,0.20369087 -0.024604,0.047625 -0.057562,0.072582 -0.085419,0.078848 -0.027857,0.00627 -0.037804,-0.0013 -0.052566,-0.016427 -0.014762,-0.015129 -0.017173,-0.040638 -0.019712,-0.068992 -0.00254,-0.028354 -7.699e-4,-0.0670819 0.00986,-0.09856 0.01063,-0.0314781 0.034224,-0.0608275 0.052562,-0.0854185 z"
     id="path6-3" />
  <path
     fill-rule="evenodd"
     fill="#00ff00"
     stroke="#555555"
     stroke-width="0"
     opacity="1"
     d="M 2.3687428,0.6433183 C 2.3897783,0.92213531 2.4348912,1.2404017 2.6477847,1.441676 2.8259287,1.5446389 3.0620546,1.4585708 3.1514204,1.277429 3.3598771,0.95878727 3.4092954,0.52987209 3.2449094,0.18183553 3.0446734,-0.10600001 2.4789782,-0.04681419 2.4067686,0.32178297 2.377711,0.42623184 2.3664093,0.53509386 2.3687428,0.6433183 Z"
     id="head" />
  <path
     style="fill:#ffff00;stroke-width:0.0071612"
     d="m 2.5972047,0.52166302 c -0.014286,6.8458e-4 -0.028917,3.2178e-4 -0.042709,0.004107 -0.014881,0.004084 -0.029188,0.010946 -0.041888,0.019712 -0.0094,0.006489 -0.018374,0.0142673 -0.02464,0.0238187 -0.00513,0.007824 -0.00923,0.0169467 -0.00986,0.0262827 -6.591e-4,0.009807 0.00201,0.0200388 0.00657,0.0287467 0.00396,0.007554 0.010606,0.0135437 0.017248,0.0188907 0.00936,0.007538 0.020118,0.0134376 0.031211,0.0180693 0.011522,0.004811 0.023834,0.007737 0.036139,0.009856 0.010822,0.001864 0.021871,0.002529 0.032853,0.002464 0.012641,-7.502e-5 0.025421,-6.3516e-4 0.037781,-0.003285 0.012191,-0.002614 0.024254,-0.006569 0.035317,-0.01232 0.00957,-0.004977 0.018925,-0.0109997 0.026283,-0.0188907 0.00746,-0.008002 0.014388,-0.0173649 0.017248,-0.0279254 0.00293,-0.0108379 0.00335,-0.0232488 -8.213e-4,-0.0336747 -0.00439,-0.0109785 -0.014698,-0.0187594 -0.023819,-0.0262827 -0.00815,-0.006722 -0.017516,-0.011991 -0.027104,-0.0164267 -0.00943,-0.004362 -0.019414,-0.007657 -0.029568,-0.009856 -0.010224,-0.002215 -0.020764,-0.002736 -0.031211,-0.003285 -0.00301,-1.5789e-4 -0.00602,-1.4497e-4 -0.00903,-9e-7 z"
     id="path4-0" />
  <path
     style="fill:#00ffff;stroke-width:0.0071612"
     d="m 2.7230976,1.1778033 c -0.00136,-0.018972 0.051302,-0.032136 0.105314,-0.03291 0.054012,-7.742e-4 0.109377,0.010841 0.1107318,0.029813 0.00135,0.018972 -0.051299,0.045299 -0.1053119,0.046074 -0.054013,7.743e-4 -0.1093785,-0.024005 -0.1107339,-0.042977 z"
     id="mouth"
     transform="matrix(1.2432489,0,0,1.389356,-0.67601534,-0.49355593)" />
  <path
     style="fill:#ffff00;stroke-width:0.0071612"
     d="m 3.1056004,0.52351912 c 0.014286,6.8458e-4 0.028917,3.2178e-4 0.042709,0.004107 0.014881,0.004084 0.029188,0.010946 0.041888,0.019712 0.0094,0.006489 0.018374,0.0142673 0.02464,0.0238187 0.00513,0.007824 0.00923,0.0169467 0.00986,0.0262827 6.591e-4,0.009807 -0.00201,0.0200388 -0.00657,0.0287467 -0.00396,0.007554 -0.010606,0.0135437 -0.017248,0.0188907 -0.00936,0.007538 -0.020118,0.0134376 -0.031211,0.0180693 -0.011522,0.004811 -0.023834,0.007737 -0.036139,0.009856 -0.010822,0.001864 -0.021871,0.002529 -0.032853,0.002464 -0.012641,-7.502e-5 -0.025421,-6.3516e-4 -0.037781,-0.003285 -0.012191,-0.002614 -0.024254,-0.006569 -0.035317,-0.01232 -0.00957,-0.004977 -0.018925,-0.0109997 -0.026283,-0.0188907 -0.00746,-0.008002 -0.014388,-0.0173649 -0.017248,-0.0279254 -0.00293,-0.0108379 -0.00335,-0.0232488 8.213e-4,-0.0336747 0.00439,-0.0109785 0.014698,-0.0187594 0.023819,-0.0262827 0.00815,-0.006722 0.017516,-0.011991 0.027104,-0.0164267 0.00943,-0.004362 0.019414,-0.007657 0.029568,-0.009856 0.010224,-0.002215 0.020764,-0.002736 0.031211,-0.003285 0.00301,-1.5789e-4 0.00602,-1.4497e-4 0.00903,-9e-7 z"
     id="path4" />
  <path
     style="fill:#ffff00;stroke-width:0.0071612"
     d="m 2.8371851,0.73345142 c -0.03725,9.5795e-4 -0.033445,0.0789279 -0.051107,0.0998926 -0.017662,0.0209647 -0.042595,0.009776 -0.041816,0.0313615 7.791e-4,0.0215855 0.040793,0.0346924 0.065047,0.0418156 0.024253,0.007123 0.051726,0.008913 0.074339,-1.6e-7 0.022613,-0.008913 0.054062,-0.0284093 0.052269,-0.0487848 -0.00179,-0.0203755 -0.024311,-0.008232 -0.042977,-0.027877 -0.018666,-0.0196453 -0.018504,-0.0973657 -0.055754,-0.0964078 z"
     id="path5" />
</svg>
