<?xml version="1.0" encoding="UTF-8" standalone="no"?>
<svg
   width="800"
   height="1580"
   viewBox="0 0 800 1585"
   version="1.1"
   id="svg29"
   sodipodi:docname="m_front.svg"
   inkscape:version="1.3.2 (091e20e, 2023-11-25, custom)"
   xmlns:inkscape="http://www.inkscape.org/namespaces/inkscape"
   xmlns:sodipodi="http://sodipodi.sourceforge.net/DTD/sodipodi-0.dtd"
   xmlns="http://www.w3.org/2000/svg"
   xmlns:svg="http://www.w3.org/2000/svg">
  <defs
     id="defs29" />
  <sodipodi:namedview
     id="namedview29"
     pagecolor="#505050"
     bordercolor="#ffffff"
     borderopacity="1"
     inkscape:showpageshadow="0"
     inkscape:pageopacity="0"
     inkscape:pagecheckerboard="1"
     inkscape:deskcolor="#505050"
     inkscape:zoom="0.54493671"
     inkscape:cx="400.04646"
     inkscape:cy="790"
     inkscape:window-width="1920"
     inkscape:window-height="1057"
     inkscape:window-x="-8"
     inkscape:window-y="-8"
     inkscape:window-maximized="1"
     inkscape:current-layer="surface1" />
  <g
     id="surface1"
     inkscape:label="surface1">
    <path
       style="fill:#000000;fill-opacity:1;fill-rule:evenodd;stroke:none"
       d="m 347.29297,271.53125 c 4.60937,11.01172 23.76172,6.91797 33.76172,10.41797 24.95312,1.46484 51.78515,1.375 75.0625,-8.32031 -0.13672,-25.78125 -13.74219,-52.89063 -10.07422,-80.05469 0.0937,-15.6211 1.8789,-31.22656 2.42969,-46.81641 -20.80469,-12.65234 -47,-2.65234 -69.96485,-6.14453 -9.55078,1.89844 -30.10156,2.32813 -22.34375,17.95313 5.71485,38.53515 2.85547,75.77734 -8.87109,112.96484 z m 0,0"
       id="path1"
       inkscape:label="neck" />
    <path
       style="fill:#00a800;fill-opacity:1;fill-rule:evenodd;stroke:none"
       d="m 108.21094,556.75391 c -1.23828,22.49609 30.21484,24.0625 42.48047,10.85546 49.57812,-49.72265 78.19921,-115.75781 113.32421,-175.64843 12.9375,-19.6211 22.75782,-51.78516 -2.03906,-66.84375 C 243.81641,310.02344 215.02344,313.94922 204,335.65234 c -25.97656,42.53516 -47.41016,88.01953 -67.97656,133.40235 -9.65235,28.9414 -21.72266,57.78906 -27.8125,87.69922 z m 0,0"
       id="path2"
       inkscape:label="right_upper_arm" />
    <path
       style="fill:#079e00;fill-opacity:1;fill-rule:evenodd;stroke:none"
       d="m 187.61719,356.31641 c -1.9375,21.20703 21.70312,34.32812 39.61718,23.9375 33.65625,-13.20313 73.33204,-21.10547 93.23047,-54.92188 11.79688,-17.98437 30.16016,-38.59766 25.10938,-61.63672 -17.92969,-20.44922 -49.66797,-6.21875 -72.51563,-4.875 -37.16797,4.01563 -74.76953,26.89453 -82.02734,66.01563 -2.82813,10.21875 -3.77734,20.90234 -3.41406,31.48047 z m 0,0"
       id="path3"
       inkscape:label="right_shoulder" />
    <path
       style="fill:#a8a8a8;fill-opacity:1;fill-rule:evenodd;stroke:none"
       d="m 19.921875,731.24219 c 0.359375,16.35547 30.195313,27.57812 35.355469,8.35937 C 80.5,681.28516 136.77734,644.00391 165.74219,588.32422 c 7.53906,-22.33594 25.71484,-52.98438 6.8789,-74.08203 -20.10547,-18.87891 -55.69531,-16.32813 -69.30859,9.16797 -41.621094,60.30859 -56.640625,133.59375 -82.324219,201.17187 -0.0625,2.27344 -0.941406,4.40234 -1.066406,6.66016 z m 0,0"
       id="path4"
       inkscape:label="right_lower_arm" />
    <path
       style="fill:#000000;fill-opacity:1;fill-rule:nonzero;stroke:none"
       d="m 35.277344,723.47266 c -9.351563,0.5039 -18.042969,7.92578 -18.933594,17.4414 -4.671875,14.42188 -10.511719,28.53906 -13.417969,43.48828 -1.261719,6.88282 -2.335937,13.84766 -2.92968725,20.76172 2.18359425,5.24219 1.98437525,9.85156 1.69531225,15.5 0.476563,4.91406 0.914063,10.57031 -1.023437,14.53516 1.050781,3.84375 -2.332031,11.8164 2.828125,15.60156 2.464844,6.27734 0.289062,14.05859 5.277344,19.41016 3.054687,2.16797 6.433593,1.84375 6.40625,6.54687 0.886718,7.9375 11.273437,10.34766 15.582031,3.76563 5.097656,-1.71485 1.34375,-8.07032 6.886719,-9.00782 6.207031,-3.47265 2.023437,-9 -1.273438,-12.61328 5.785156,-1.0625 11.164062,-7.6289 7.796875,-13.42578 -3.308594,-5.85937 -10.589844,-8.92969 -12.023437,-15.98047 -2.03125,-6.41797 -2.035157,-13.21875 -2.890626,-19.83984 1.320313,-2.22266 3.058594,-7.33594 3.757813,-1.98438 2.476563,5.75391 4.023437,16.40625 12.445313,11.01172 8.421874,-2.83984 8.949218,-13.89843 3.917968,-20.04687 -3.773437,-6.66406 -4.5,-15.83985 -1.46875,-22.76172 6.152344,-12.76563 10.21875,-28.00781 5.117188,-41.80859 -2.726563,-7.00782 -10.390625,-11.1836 -17.75,-10.59375 z m 0,0"
       id="path5"
       inkscape:label="right_hand" />
    <path
       style="fill:#000000;fill-opacity:1;fill-rule:evenodd;stroke:none"
       d="m 533.92187,356.8125 c 10.58594,42.27344 38.95704,77.53516 57.35938,116.66016 22.30469,34.10156 42.14453,72.61718 75.30078,97.39453 15.57031,11.90625 44.57422,0.0703 35.96484,-21.92188 -16.54296,-59.76953 -41.22265,-116.65234 -71.73046,-170.57422 -14.50391,-22.53125 -24.45313,-61.57422 -56.63672,-63.05078 -20.91016,1.29297 -43.1211,18.77735 -40.25782,41.49219 z m 0,0"
       id="path6"
       inkscape:label="left_upper_arm" />
    <path
       style="fill:#000000;fill-opacity:1;fill-rule:evenodd;stroke:none"
       d="m 463.49219,270.51562 c 4.77343,33.4375 26.875,64.32813 53.41797,84.48047 24.08593,10.83985 49.1914,21.48047 74.71093,28.00782 29.3711,0.51562 33.02344,-38.82813 22.92188,-59.17579 -8.71485,-37.69921 -44.02735,-61.92968 -81.27735,-65.35156 -21.71484,-1.90234 -51.39843,-14.73828 -68.14843,5.0625 -0.54297,2.32422 -1.08594,4.65235 -1.625,6.97656 z m 0,0"
       id="path7"
       inkscape:label="left_shoulder" />
    <path
       style="fill:#00079e;fill-opacity:1;fill-rule:evenodd;stroke:none"
       d="m 627.92578,533.44531 c 2.32813,44.44922 27.64063,82.63672 57.82031,113.60547 25.57032,30.68359 51.26172,62.23828 66.82813,99.11328 14.8125,9.73047 38.70312,-9.1289 28.40625,-26.46484 -23.26953,-68.82422 -34.60156,-144.83985 -79.33203,-204.06641 -17.82813,-24.8789 -63.35157,-16.22265 -73.22657,11.26172 l -0.26953,3.54297 z m 0,0"
       id="path8"
       inkscape:label="left_lower_arm" />
    <path
       style="fill:#00a89e;fill-opacity:1;fill-rule:evenodd;stroke:none"
       d="m 456.72266,1210.8164 c 12.91015,95.5156 50.04687,187.5547 46.09375,285.2266 -3.3086,18.2461 16.08203,35.4179 32.60937,23.3359 31.14063,-20.7226 16.90234,-64.3984 20.25391,-95.5039 -2.04297,-74.5977 6.02343,-148.918 7,-223.3828 -5.52344,-51.2695 -13.64063,-103.6445 -33.72657,-151.3828 -9.60937,-22.2735 -43.26171,-25.2344 -54.55468,-2.9219 -15.45313,30.6836 -7.83203,67.4766 -14.92578,100.4258 -2.17579,21.3476 -3.96875,42.7305 -2.75,64.2031 z m 0,0"
       id="path9"
       inkscape:label="left_lower_leg" />
    <path
       style="fill:#000000;fill-opacity:1;fill-rule:nonzero;stroke:none"
       d="m 765.13281,702.25391 c 9.35547,0.50781 18.04297,7.92578 18.9336,17.44531 4.67187,14.42187 10.51562,28.53906 13.42187,43.48828 1.26172,6.88281 2.33203,13.84375 2.92578,20.76172 -2.17969,5.23828 -1.98047,9.84765 -1.6914,15.49609 -0.48047,4.91797 -0.91797,10.57422 1.01953,14.53516 -1.05078,3.84765 2.33203,11.82031 -2.82422,15.60547 -2.46485,6.27734 -0.29297,14.05859 -5.27735,19.41015 -3.05859,2.16797 -6.4375,1.84375 -6.41015,6.54297 -0.88281,7.94141 -11.26953,10.34766 -15.57813,3.76563 -5.10156,-1.71485 -1.34375,-8.06641 -6.89062,-9.00391 -6.20313,-3.47266 -2.01953,-9 1.27734,-12.61328 -5.78515,-1.0625 -11.16406,-7.62891 -7.79687,-13.42578 3.30468,-5.85938 10.58593,-8.92969 12.01953,-15.98047 2.03515,-6.41797 2.03906,-13.22266 2.89453,-19.83984 -1.32422,-2.22657 -3.05859,-7.33985 -3.75781,-1.98829 -2.47657,5.75391 -4.02735,16.41016 -12.44532,11.01172 -8.42187,-2.83593 -8.95312,-13.89453 -3.92187,-20.04297 3.77734,-6.66406 4.5,-15.83984 1.47266,-22.76171 -6.15235,-12.76954 -10.21875,-28.00782 -5.1211,-41.8086 2.73047,-7.00781 10.39063,-11.18359 17.75,-10.59765 z m 0,0"
       id="path10"
       inkscape:label="left_hand" />
    <path
       style="fill:#00ff00;fill-opacity:1;fill-rule:evenodd;stroke:none"
       d="m 410.32422,747.07031 c 1.08984,81.42188 1.91406,164.10156 27.6875,242.28906 12.22656,36.43753 7.80078,78.57423 28.75,111.75783 19.36328,25.8086 58.16406,5.8086 64.71484,-20.8945 13,-46.5782 13.46094,-95.88676 20.91797,-143.58598 7.10547,-78.87891 -2.65234,-158.92188 -21.05078,-235.62891 -5.91406,-32.90625 -38.82422,-62.24609 -73.27734,-50.23437 -38.67579,13.36718 -43.66797,61.82812 -47.74219,96.29687 z m 0,0"
       id="path11"
       inkscape:label="left_upper_leg" />
    <path
       style="fill:#00ff00;fill-opacity:1;fill-rule:evenodd;stroke:none"
       d="m 555.50391,1470.4023 c 11.4375,24.4727 -11.95704,50.2696 -35.05079,36.2813 -22.3125,1.4414 -22.67187,-48.3203 -10.86718,-68.7227 13.67968,-22.75 46.78515,-3.3242 44.57812,18.8516 0.58594,4.5234 1.31641,9.0195 1.33985,13.5898 z m 0,0"
       id="path12"
       inkscape:label="left_ankle" />
    <path
       style="fill:#000000;fill-opacity:1;fill-rule:evenodd;stroke:none"
       d="m 495.02734,1560.4414 c 0.80078,13.4102 14.75782,16.0547 25.46485,16.9805 13.73047,15.3476 37.35937,2.7109 54.79297,3.4922 16.125,1.3593 30.33593,-15.7305 18.90625,-30.1055 -13.13672,-17 -31.36719,-30.9023 -34.44141,-53.9805 -7.97266,-24.5664 -8.62891,-20.7851 -27.86719,-39.8867 -18.23047,-2.7226 -22.5625,6.3828 -27.41797,18.832 -5.83203,30.0938 -2.75,45.5938 -9.97656,75.5782 -0.082,3.0547 0.0859,6.0703 0.53906,9.0898 z m 0,0"
       id="path13"
       inkscape:label="left_feet" />
    <path
       style="fill:#000000;fill-opacity:1;fill-rule:evenodd;stroke:none"
       d="m 471.26172,1076.6172 c -1.33594,19.8047 4.73828,51.7578 29.61328,52.5195 25.09375,-9.625 24.93359,-46.039 15.57422,-66.75 -5.82031,-22.9492 -41.10938,-18.8945 -42.85938,4.2344 -0.96484,3.3125 -1.98047,6.5469 -2.32812,9.9961 z m 0,0"
       id="path14"
       inkscape:label="left_knee" />
    <path
       style="fill:#fffaba;fill-opacity:1;fill-rule:evenodd;stroke:none"
       d="m 242.92969,1204.8906 c 4.55078,87.1289 11.57031,174.2852 8.41015,261.6563 -3.45312,22.6562 4.50391,58.8867 33.91797,56.6054 24.79297,-5.582 16.42969,-38.6328 19.98828,-57.3007 1.94141,-90.9414 37.79688,-176.6602 45.58594,-266.6407 -0.22266,-46.3398 -9.42969,-92.4062 -16.63281,-138.0039 -3.38281,-24.9609 -37.66016,-42.4218 -55.22656,-19.9414 -21.82422,35.375 -24.23829,79.1133 -32.32422,119.0352 -2.20703,14.7969 -3.08594,29.6601 -3.71875,44.5898 z m 0,0"
       id="path15"
       inkscape:label="right_lower_leg" />
    <path
       style="fill:#00ff00;fill-opacity:1;fill-rule:evenodd;stroke:none"
       d="m 251.68359,1458.3984 c -11.4375,24.4688 11.95703,50.2696 35.04688,36.2813 22.3164,1.4414 22.67578,-48.3203 10.87109,-68.7227 -13.67969,-22.75 -46.78515,-3.3242 -44.57812,18.8477 -0.58594,4.5234 -1.31641,9.0234 -1.34375,13.5937 z m 0,0"
       id="path16"
       inkscape:label="right_ankle" />
    <path
       style="fill:#0cf000;fill-opacity:1;fill-rule:evenodd;stroke:none"
       d="m 246.44531,851.63672 c -3.1875,73.09765 10.29297,145.54297 19.5,217.71488 2.4336,27.7812 34.76172,57.6562 61.55469,37.8593 26.87891,-28.0703 21.33594,-71.5 32.53516,-106.4297 23.47265,-83.97261 30.6914,-171.57808 28.07031,-258.44526 -3.29297,-36.00391 -13.95703,-85.37891 -56.04297,-93.00782 -36.24219,-7.66015 -64.08203,25.88672 -68.20313,58.86329 -10.26953,47.03515 -13.9414,95.5039 -17.41406,143.44531 z m 0,0"
       id="path17"
       inkscape:label="right_upper_leg" />
    <path
       style="fill:#000000;fill-opacity:1;fill-rule:evenodd;stroke:none"
       d="m 196.84375,1563.2109 c 0.16406,22.0352 29.80859,17.3321 44.35156,20.8008 10.73438,1.1055 23.74219,3.2188 32.27735,-4.8398 15.91406,-0.9102 42.12109,-1.3008 40.0625,-24.4024 -7.30469,-41.2343 5.66796,-52.5898 -16.94532,-89.7031 -10.07422,-17.418 -35.05859,-15.1367 -37.03515,-2.8047 -13.32813,31.7891 -12.15625,56.6133 -45.28125,75.6836 -7.16407,7.0352 -16.94141,14.4024 -17.42969,25.2656 z m 0,0"
       id="path18"
       inkscape:label="right_feet" />
    <path
       style="fill:#000000;fill-opacity:1;fill-rule:evenodd;stroke:none"
       d="m 274.625,1089.6992 c -2.00391,17.5 12.33203,49.6016 33.625,36.2774 20.14844,-14.9219 21.75,-48.3243 10.42578,-68.7227 -13.12109,-22.75 -44.87891,-3.3242 -42.76562,18.8516 -0.5625,4.5234 -1.26172,9.0234 -1.28516,13.5937 z m 0,0"
       id="path19"
       inkscape:label="right_knee" />
    <path
       style="fill:#0000ff;fill-opacity:1;fill-rule:evenodd;stroke:none"
       d="m 272.21094,700.12891 c -0.49219,31.61328 27.94922,52.5039 33.91406,82.47656 10.19141,35.7539 54.875,38.6914 85.50781,34.14453 32.9961,-1.125 71.79297,8.86719 99.12891,-15.67969 14.72265,-22.09765 14.77344,-50.62109 30.22265,-72.6289 12.57422,-34.49219 2.58204,-76.79297 -20.98828,-104.35157 -26.79297,-24.98437 -66.39843,-30.44531 -101.6289,-32.58593 -39.16407,2.92968 -86.89844,8.46484 -110.70703,43.72656 -11.02735,19.57812 -14.78125,42.6914 -15.44922,64.89844 z m 0,0"
       id="path20"
       inkscape:label="abdomen" />
    <path
       style="fill:#ff00ff;fill-opacity:1;fill-rule:evenodd;stroke:none"
       d="m 288.57812,649.87109 c -2.83593,43.02344 34.95313,76.03907 75.16407,81.17578 49.16015,8.39844 115.5664,0.96485 138.36718,-50.44921 16.51954,-49.41407 -10.3789,-100.20313 -4.16015,-150.70704 4.03125,-46.91796 -2.29297,-104.57031 -48.21094,-129.66796 -54.21094,-35.17579 -136.58594,-1.05079 -147.4375,63.38671 -8.26562,49.03125 4.52734,99.71094 -9.32422,148.38282 -2.14844,12.5625 -3.96875,25.12109 -4.39844,37.8789 z m 0,0"
       id="path21"
       inkscape:label="lower_body" />
    <path
       style="fill:#000cf0;fill-opacity:1;fill-rule:evenodd;stroke:none"
       d="m 251.24219,313.96094 c -5.06641,61.4414 12.53125,124.48828 44.98047,176.33984 23.45312,23.60156 59.26171,32.58594 91.77734,35.60156 41.52734,2.01563 90.38281,-5.4375 117.70312,-39.58593 31.69532,-59.19141 55.73438,-128.03907 44.74219,-195.80079 -11.86328,-37.71093 -54.875,-50.67578 -84.60547,-71.33593 -42.39843,-27.41797 -98.77734,-21.01172 -138.44922,8.4375 -31.4375,19.36718 -74.4375,38.98828 -75.41015,81.87109 l -0.57813,3.50391 z m 0,0"
       id="path22"
       inkscape:label="upper_body" />
    <path
       style="fill:#ffff00;fill-opacity:1;fill-rule:nonzero;stroke:none"
       d="m 334.27344,100.85938 c -2.57032,-3.441411 -3.97266,-8.35938 -7.83203,-8.742192 -3.85547,-0.382813 -6.59375,0.71875 -9.20704,6.902343 -2.61328,6.183599 0.23438,21.863279 3.6836,28.535159 3.44922,6.67187 8.0664,10.16797 11.97265,11.04297 3.90625,0.8789 5.29688,-0.17969 7.36719,-2.30079 2.07031,-2.11718 2.40625,-5.6914 2.76172,-9.66406 0.35938,-3.97265 0.10938,-9.39843 -1.37891,-13.80468 -1.49218,-4.41016 -4.79687,-8.52344 -7.36718,-11.96875 z m 0,0"
       id="path23"
       inkscape:label="right_ear" />
    <path
       style="fill:#ffff00;fill-opacity:1;fill-rule:nonzero;stroke:none"
       d="m 468.26172,103.29688 c 2.57031,-3.445318 3.97265,-8.363286 7.82812,-8.746099 3.85547,-0.378906 6.59766,0.71875 9.21094,6.902349 2.61328,6.1875 -0.23828,21.86328 -3.68359,28.53515 -3.44922,6.67188 -8.07032,10.16797 -11.97266,11.04688 -3.90625,0.8789 -5.30078,-0.1836 -7.37109,-2.30079 -2.06641,-2.12109 -2.40625,-5.69531 -2.76172,-9.66796 -0.35547,-3.96875 -0.10938,-9.39453 1.38281,-13.80469 1.48828,-4.41016 4.79688,-8.51953 7.36719,-11.96484 z m 0,0"
       id="path24"
       inkscape:label="left_ear" />
    <path
       style="fill:#00ff00;fill-opacity:1;fill-rule:evenodd;stroke:none"
       d="m 332.85156,90.117188 c 2.94531,39.058592 9.26953,83.640622 39.10938,111.835932 24.97265,14.42579 58.07031,2.36719 70.59375,-23.00781 29.21875,-44.63672 36.14843,-104.718748 13.10547,-153.472654 -28.06641,-40.320312 -107.35938,-32.03125 -117.48047,19.605469 -4.07422,14.628906 -5.65625,29.878906 -5.32813,45.039063 z m 0,0"
       id="path25"
       inkscape:label="head" />
    <path
       style="fill:#ffff00;fill-opacity:1;fill-rule:nonzero;stroke:none"
       d="m 364.87109,73.078125 c -2,0.09375 -4.05078,0.04297 -5.98437,0.574219 -2.08594,0.570312 -4.08985,1.53125 -5.8711,2.761718 -1.3164,0.90625 -2.57421,1.996094 -3.45312,3.335938 -0.71875,1.09375 -1.29297,2.375 -1.38281,3.679688 -0.0937,1.375 0.28125,2.808593 0.92187,4.027343 0.55469,1.058594 1.48438,1.898438 2.41797,2.648438 1.30859,1.054687 2.82031,1.882812 4.375,2.53125 1.61328,0.671875 3.33984,1.082031 5.0625,1.378906 1.51953,0.261719 3.06641,0.355469 4.60547,0.347656 1.77344,-0.01172 3.5625,-0.08984 5.29687,-0.460937 1.70704,-0.367188 3.39844,-0.921875 4.94922,-1.726563 1.34375,-0.699219 2.65235,-1.542969 3.6836,-2.648437 1.04687,-1.117188 2.01953,-2.429688 2.41797,-3.910156 0.41015,-1.519532 0.46875,-3.257813 -0.11329,-4.71875 -0.61718,-1.535157 -2.0625,-2.625 -3.33984,-3.679688 -1.14062,-0.941406 -2.45703,-1.679688 -3.80078,-2.300781 -1.32031,-0.613281 -2.71875,-1.074219 -4.14453,-1.382813 -1.42969,-0.308594 -2.91016,-0.382812 -4.3711,-0.457031 -0.42578,-0.02344 -0.84765,-0.02344 -1.26953,0 z m 0,0"
       id="path26"
       inkscape:label="right_eye" />
    <path
       style="fill:#00ffff;fill-opacity:1;fill-rule:nonzero;stroke:none"
       d="m 380.60937,160.08984 c -0.23828,-3.6914 8.94141,-6.2539 18.35157,-6.40234 9.41406,-0.15234 19.0625,2.10937 19.29687,5.80078 0.23438,3.69141 -8.9375,8.81641 -18.35156,8.96875 -9.41406,0.14844 -19.0625,-4.67187 -19.29688,-8.36719 z m 0,0"
       id="path27"
       inkscape:label="mouse" />
    <path
       style="fill:#ffff00;fill-opacity:1;fill-rule:nonzero;stroke:none"
       d="m 436.13281,73.335938 c 2.00391,0.09766 4.05469,0.04687 5.98828,0.574218 2.08594,0.574219 4.08985,1.535156 5.8711,2.761719 1.3164,0.910156 2.57422,2 3.45312,3.335937 0.71875,1.097657 1.29297,2.375 1.38281,3.683594 0.0899,1.375 -0.28125,2.808594 -0.92187,4.027344 -0.55469,1.058594 -1.48828,1.898438 -2.41797,2.644531 -1.3125,1.058594 -2.82031,1.882813 -4.375,2.53125 -1.61328,0.675781 -3.33984,1.085938 -5.06641,1.382813 -1.51562,0.261718 -3.0625,0.351562 -4.60546,0.34375 -1.76954,-0.01172 -3.5625,-0.08984 -5.29297,-0.460938 -1.71094,-0.363281 -3.40235,-0.917968 -4.95313,-1.722656 -1.33984,-0.699219 -2.65234,-1.542969 -3.68359,-2.648438 -1.04297,-1.121093 -2.01563,-2.433593 -2.41797,-3.910156 -0.41016,-1.519531 -0.46875,-3.257812 0.11719,-4.71875 0.61328,-1.539062 2.05859,-2.628906 3.33984,-3.683594 1.14063,-0.941406 2.45313,-1.679687 3.79688,-2.300781 1.32421,-0.609375 2.72265,-1.070312 4.14453,-1.378906 1.43359,-0.3125 2.91015,-0.382813 4.375,-0.460937 0.42187,-0.02344 0.84375,-0.01953 1.26562,0 z m 0,0"
       id="path28"
       inkscape:label="left_eye" />
    <path
       style="fill:#ffff00;fill-opacity:1;fill-rule:nonzero;stroke:none"
       d="m 398.51172,102.74609 c -5.22266,0.13282 -4.6875,11.05469 -7.16406,13.99219 -2.47657,2.9375 -5.97266,1.36719 -5.86329,4.39063 0.10938,3.02734 5.71875,4.86328 9.11719,5.85937 3.40235,0.9961 7.25,1.25 10.42188,0 3.16797,-1.25 7.57812,-3.98047 7.32422,-6.83203 -0.25,-2.85547 -3.40625,-1.15625 -6.02344,-3.90625 -2.61328,-2.75391 -2.59375,-13.64062 -7.8125,-13.50391 z m 0,0"
       id="path29"
       inkscape:label="nose" />
  </g>
</svg>
