<?xml version="1.0" encoding="UTF-8" standalone="no"?>
<svg
   width="800"
   height="1580"
   viewBox="0 0 800 1580"
   version="1.1"
   id="svg14"
   sodipodi:docname="m_left.svg"
   inkscape:export-filename="..\Pictures\svg\m_left.svg"
   inkscape:export-xdpi="96"
   inkscape:export-ydpi="96"
   inkscape:version="1.3.2 (091e20e, 2023-11-25, custom)"
   xmlns:inkscape="http://www.inkscape.org/namespaces/inkscape"
   xmlns:sodipodi="http://sodipodi.sourceforge.net/DTD/sodipodi-0.dtd"
   xmlns="http://www.w3.org/2000/svg"
   xmlns:svg="http://www.w3.org/2000/svg">
  <defs
     id="defs14">
    <inkscape:path-effect
       effect="bspline"
       id="path-effect15"
       is_visible="true"
       lpeversion="1.3"
       weight="33.333333"
       steps="2"
       helper_size="0"
       apply_no_weight="true"
       apply_with_weight="true"
       only_selected="false"
       uniform="false" />
  </defs>
  <sodipodi:namedview
     id="namedview14"
     pagecolor="#505050"
     bordercolor="#ffffff"
     borderopacity="1"
     inkscape:showpageshadow="0"
     inkscape:pageopacity="0"
     inkscape:pagecheckerboard="1"
     inkscape:deskcolor="#505050"
     inkscape:zoom="0.54493671"
     inkscape:cx="-128.45528"
     inkscape:cy="790"
     inkscape:window-width="1920"
     inkscape:window-height="1057"
     inkscape:window-x="-8"
     inkscape:window-y="-8"
     inkscape:window-maximized="1"
     inkscape:current-layer="surface1" />
  <g
     id="surface1"
     inkscape:label="surface1">
    <path
       style="fill:#000000;fill-opacity:1;fill-rule:evenodd;stroke:none"
       d="m 473.10547,256.50781 c -33.08203,7.89453 -66.71485,15.22656 -99.27344,24.34766 -10.73828,4.86328 0.32422,-24.57031 -3.60547,-30.31641 1.67969,-32.79687 -2.88672,-65.18359 -9.84375,-97.16015 31.65625,-4.69141 63.4961,-8.87891 94.84766,-14.92579 0.0742,22.60938 -1.28906,48.49219 8.80469,70.63282 3.89843,15.57812 5.85156,31.67578 9.07031,47.42187 z m 0,0"
       id="neck"
       inkscape:label="neck" />
    <path
       style="fill:#00fff0;fill-opacity:1;fill-rule:evenodd;stroke:none"
       d="m 511.19141,319.78906 c -2.58985,62.8125 -55.08594,107.10547 -76.16016,163.53516 -6.92188,16.1289 -15.34766,47.68359 -39.32813,40.19922 -15.79687,-8.87891 -30.4414,-19.55469 -48.36718,-24.32032 -32.17969,-14.58593 -62.82813,-43.04687 -69.21875,-78.93359 0.73437,-59.37109 39.41797,-108.49219 72.91797,-154.16406 23.71484,-24.14453 44.28125,-57.28516 78.98046,-66.00391 35.10938,-3.17969 50.82422,35.88281 65.73829,60.85156 9.3789,18.19922 15.45312,38.23047 15.4375,58.83594 z m 0,0"
       id="upper_body"
       inkscape:label="upper_body" />
    <path
       style="fill:#000000;fill-opacity:1;fill-rule:evenodd;stroke:none"
       d="m 436.92578,648.89062 c 3.32813,46.90625 -44.76953,76.02735 -85.53906,82.69922 -21.02344,5.30078 -52.95313,1.26953 -56.03906,-25.40625 -17.51563,-53.58203 -1.92969,-109.96484 -8.69532,-164.83593 -0.5039,-41.97266 -4.68359,-87.46875 14.53516,-126.19922 23.0625,-37.75391 87.00391,-39.5 113.22656,-4.69922 20.27344,34.58203 2.89844,76.2539 4.67188,113.73437 -2.94532,42.83985 12.15625,82.98438 17.83984,124.70703 z m 0,0"
       id="path3"
       inkscape:label="lower_body" />
    <path
       style="fill:#000cf0;fill-opacity:1;fill-rule:evenodd;stroke:none"
       d="m 478.57031,104.15234 c -13.65625,49.77735 -67.14453,70.07813 -109.48437,89.77735 -18.73828,4.59765 -38.28516,17.43359 -57.78516,13.17578 -17.23828,-11.70703 -15.83203,-37.15625 -19.62109,-55.60938 -4.57813,-49.30468 2.26953,-111.847652 50.69922,-137.988278 43.97656,-25.671874 116.24218,-16.125 134.17578,37.265626 5.98047,17.050781 6.33203,35.890624 2.01562,53.378902 z m 0,0"
       id="head"
       inkscape:label="head" />
    <path
       style="fill:#000000;fill-opacity:1;fill-rule:evenodd;stroke:none"
       d="m 453.84375,820.77734 c 0.91406,82.41407 -8.81641,165.17188 -27.16406,245.39456 -7.86719,22.4414 -31.57813,52.4687 -58.25782,39.875 -33.26562,-25.4961 -32.98046,-72.6992 -44.85937,-109.52737 -28.44531,-94.53516 -34.67969,-195.03516 -20.77734,-292.60156 2.27343,-28.66016 22.86328,-60.89453 55.11718,-57.44531 49.5625,2.35156 77.51563,52.94531 86.4961,96.39843 5.96875,25.55078 8.58203,51.71875 9.44531,77.90625 z m 0,0"
       id="path5"
       inkscape:label="left_upper_leg" />
    <path
       style="fill:#000000;fill-opacity:1;fill-rule:evenodd;stroke:none"
       d="m 489.40234,1197.8906 c -4.90234,65.0703 -17.90625,129.4649 -18.75,194.9532 -4.57812,32.8984 7.63282,72.0976 -14.27734,100.25 -10.26953,10.9843 -27.94141,33.375 -44.08594,19.082 -15.67969,-28.5469 -3.68359,-63.3672 -5.89062,-94.3789 -2.09375,-89.7617 -21.96094,-177.9102 -43.125,-264.7969 -5.52344,-36.6211 -17.20703,-79.8477 5.26562,-113.1016 15.75,-22.1367 50.11328,-14.6757 60.81641,8.5743 21.8789,42.1289 46.58203,84.0312 58.47656,130.2929 0.52344,6.375 1.04688,12.75 1.57031,19.125 z m 0,0"
       id="path6"
       inkscape:label="left_lower_leg" />
    <path
       style="fill:#000000;fill-opacity:1;fill-rule:evenodd;stroke:none"
       d="m 470.99609,758.44141 c 2.74219,32.14843 -24,62.15625 -56.78125,58.02734 -30.15234,-3.12891 -60.33203,-14.42188 -90.71484,-4.77344 -18.44531,6.51563 -43.63281,-1.9375 -44.10938,-24.27344 -3.26562,-40.28906 12.17579,-79.42578 11.71875,-119.8125 1.71875,-22.51562 -4.08203,-51.60937 19.40625,-65.24609 32.25391,-22.33984 77.77344,-10.21094 101.875,18.67578 38.00391,33.9336 53.35938,86.20703 58.51954,135.27735 z m 0,0"
       id="abdomen"
       inkscape:label="abdomen" />
    <path
       style="fill:#000000;fill-opacity:1;fill-rule:evenodd;stroke:none"
       d="m 480.34375,1546.0469 c 2.72266,22.4023 -22.05859,29.4609 -39.44141,24.9648 -46.52343,0.9375 -93.47656,13.9297 -139.85156,6.4883 -17.04297,-2.625 -18.22656,-26.6055 -3,-32.8945 32.39453,-20.1992 79.97266,-22.0625 97,-61.6407 12.74609,-21.6601 17.94141,-49.1406 37.85547,-65.5195 24.99609,-5.3906 34.02734,26.6016 34.39453,45.9453 0.33984,28.3711 7.60547,55.2188 13.04297,82.6563 z m 0,0"
       id="left_feet"
       inkscape:label="left_feet" />
    <path
       style="fill:#000000;fill-opacity:1;fill-rule:evenodd;stroke:none"
       d="m 379.52734,1086.2344 c 1.01172,14.0625 -0.0469,37.3398 -18.45703,39.1484 -23.28906,-7.4219 -28.28125,-37.5234 -27.4375,-58.7695 -0.0234,-15.5117 20.80469,-32.5508 32.48047,-16.8516 9.23047,9.7149 11.40625,23.8047 13.41406,36.4727 z m 0,0"
       id="path9"
       inkscape:label="left_knee" />
    <path
       style="fill:#000000;fill-opacity:1;fill-rule:evenodd;stroke:none"
       d="m 517.75,449.51172 c -4.1875,34.3789 4.80078,71.26562 -8.51953,103.92578 -13.20703,22.91797 -46.71094,14.07422 -56.94922,-6.91016 -15.20703,-31.65234 -29.94922,-64.19531 -40.11719,-97.91797 -7.59375,-39.67968 -1.5664,-83.45703 18.76563,-118.49609 14.90625,-24.75391 58.07812,-28.65625 69.48437,1.34766 14.5,37.32031 18.84766,78.24218 17.33594,118.05078 z m 0,0"
       id="path10"
       inkscape:label="left_upper_arm" />
    <path
       style="fill:#00ff00;fill-opacity:1;fill-rule:evenodd;stroke:none"
       d="m 503.47266,299.97266 c 2.89062,32.1914 -25.08985,56.92187 -50.27735,71.88281 -21.21094,12.20703 -48.54297,5.92187 -61.78515,-14.87891 -32.01563,-25.19922 -17.28907,-78.82812 15.45312,-96.29297 25.15625,-8.99218 60.00781,-20.83203 81.66797,0.8086 9.75781,10.1875 12.87109,25.02343 14.94141,38.48047 z m 0,0"
       id="left_shoulder"
       inkscape:label="left_shoulder" />
    <path
       style="fill:#000000;fill-opacity:1;fill-rule:evenodd;stroke:none"
       d="m 522.03906,539.07422 c 1.89844,19.21094 -21.5039,42.94922 -39.09765,27.12109 -16.76954,-18.40625 6.71875,-57.46094 31.28515,-43.71094 6.10938,3.71094 7.11719,10.08985 7.8125,16.58985 z m 0,0"
       id="path12"
       inkscape:label="left_elbow" />
    <path
       style="fill:#000000;fill-opacity:1;fill-rule:evenodd;stroke:none"
       d="m 508.62891,539.13672 c 1.9375,67.07031 -45.00782,120.71484 -63.89844,182.30078 -2.80078,20.08203 -26.4961,22.48437 -40.78516,13.85547 -8.47265,-15.54297 3.20313,-35.1875 3.16016,-51.77735 10.625,-48.84375 3.49219,-102.23828 29.89844,-146.82421 5.89062,-22.66797 28.5625,-52.10157 54.80078,-40.66797 15.21484,8.1875 16.84765,27.75781 16.82422,43.11328 z m 0,0"
       id="left_lower_arm"
       inkscape:label="left_lower_arm" />
    <path
       style="fill:#00ffff"
       d="m 415.6446,1432.2764 c 6.42276,-6.4227 17.43322,-13.763 27.52621,-12.8454 10.093,0.9176 19.26819,10.0928 22.63249,22.3268 3.36429,12.234 0.91757,27.526 -3.67019,35.1721 -4.58775,7.6462 -11.31623,7.6462 -17.73905,10.093 -6.42282,2.4468 -12.5396,7.3402 -18.35075,7.0343 -5.81116,-0.3059 -11.31626,-5.811 -14.68057,-14.0689 -3.36431,-8.258 -4.58767,-19.2682 -4.28181,-27.5261 0.30586,-8.2579 2.1409,-13.763 8.56367,-20.1858 z"
       id="path15"
       inkscape:path-effect="#path-effect15"
       inkscape:original-d="m 411.05691,1433.194 c 11.01045,-7.3403 22.02091,-14.6806 33.03136,-22.0209 9.17556,9.1755 18.35075,18.3507 27.52613,27.5261 -2.44681,15.2926 -4.89353,30.5846 -7.3403,45.8769 -6.72874,0 -13.45722,0 -20.18583,0 -6.11704,4.8936 -12.23384,9.787 -18.35076,14.6806 -5.50533,-5.5054 -11.01045,-11.0105 -16.51567,-16.5157 -1.22341,-11.0107 -2.44677,-22.0209 -3.67016,-33.0314 1.83512,-5.5053 3.67016,-11.0104 5.50523,-16.5156 z"
       inkscape:label="left_ankle" />
    <path
       style="fill:#000000;fill-opacity:1;fill-rule:nonzero;stroke:none"
       d="m 415.01562,713.66797 c -40.59375,11.88281 -50.95312,56.69922 -69.07031,89.55078 22.58594,26.26562 38.58594,-53.95313 30.30469,1.58203 0.19141,17.60156 -17.73438,46.64453 -3.6875,55.20703 17.51172,2.39063 25.83594,-94.42578 22.76953,-27.46094 -8.28906,22.98829 6.42969,68.9336 14.78906,20.0625 0.53907,-28.73046 11.46094,-65.96875 10.08203,-16.74218 -5.15234,31.84375 25.57813,40.8789 17.21094,-2.61719 1.14453,-70.07422 4.07422,46.88281 23.88281,6.35937 -13.58593,-40.18359 10.30469,-116.79687 -46.28125,-125.9414 z m 0,0"
       id="path14"
       inkscape:label="left_hand" />
  </g>
</svg>
