<?xml version="1.0" encoding="UTF-8" standalone="no"?>
<svg
   width="800"
   height="1580"
   viewBox="0 0 800 1580"
   version="1.1"
   id="svg14"
   sodipodi:docname="m_right.svg"
   xmlns:inkscape="http://www.inkscape.org/namespaces/inkscape"
   xmlns:sodipodi="http://sodipodi.sourceforge.net/DTD/sodipodi-0.dtd"
   xmlns="http://www.w3.org/2000/svg"
   xmlns:svg="http://www.w3.org/2000/svg">
  <defs
     id="defs14">
    <inkscape:path-effect
       effect="bspline"
       id="path-effect15"
       is_visible="true"
       lpeversion="1.3"
       weight="33.333333"
       steps="2"
       helper_size="0"
       apply_no_weight="true"
       apply_with_weight="true"
       only_selected="false"
       uniform="false" />
  </defs>
  <sodipodi:namedview
     id="namedview14"
     pagecolor="#505050"
     bordercolor="#ffffff"
     borderopacity="1"
     inkscape:showpageshadow="0"
     inkscape:pageopacity="0"
     inkscape:pagecheckerboard="1"
     inkscape:deskcolor="#505050" />
  <g
     id="surface1"
     inkscape:label="surface1">
    <path
       style="fill:#000000;fill-opacity:1;fill-rule:evenodd;stroke:none"
       d="m 326.89453,256.50781 c 33.08594,7.89063 66.71094,15.22656 99.27344,24.34766 10.60156,3.58984 -0.25391,-26.58985 3.59765,-33.51172 -1.67578,-31.74219 3.30079,-63.01172 9.85157,-93.96484 -31.66407,-4.66407 -63.49219,-8.92188 -94.85157,-14.92579 -0.0742,22.60938 1.29297,48.49219 -8.80468,70.63282 -3.89453,15.57812 -5.85157,31.67968 -9.06641,47.42187 z m 0,0"
       id="path1"
       inkscape:label="neck" />
    <path
       style="fill:#000000;fill-opacity:1;fill-rule:evenodd;stroke:none"
       d="m 321.42969,104.15234 c 13.67968,49.77735 67.14843,70.07422 109.48437,89.77735 18.73828,4.77343 38.28906,17.17187 57.78516,13.17578 17.82031,-12.62891 16.23437,-39.28125 19.89062,-58.79297 C 512.83203,98.976562 504.4375,36.277344 454.79687,12.003906 410.36328,-12.261719 339.05469,-0.964844 322.71094,52.726562 c -5.16797,16.609376 -5.48438,34.570313 -1.28125,51.425778 z m 0,0"
       id="path2"
       inkscape:label="head" />
    <path
       style="fill:#0000ff;fill-opacity:1;fill-rule:evenodd;stroke:none"
       d="m 288.80859,319.78906 c 2.3086,61.72656 53.66016,105.5 74.83985,160.6211 8.2539,15.27343 12.69531,45.40234 35.48047,43.97656 17.71093,-3.08203 29.27734,-20.15625 47.63281,-22.71485 34.89844,-13.7539 68.01172,-43.44531 75.12109,-81.40234 -0.97656,-60.375 -40.44922,-110.42969 -74.98437,-156.60547 -23.125,-23.26562 -43.13672,-55.39844 -76.91407,-63.5625 -34.1289,-3.45312 -49.54296,33.96875 -64.34375,57.97266 -10,19.07031 -16.92968,39.98437 -16.83203,61.71484 z m 0,0"
       id="path3"
       inkscape:label="upper_body" />
    <path
       style="fill:#a80000;fill-opacity:1;fill-rule:evenodd;stroke:none"
       d="m 363.07422,648.89062 c -3.33594,46.85938 44.76953,76.04297 85.53906,82.69922 21.07422,5.27344 52.86719,1.25391 56.04297,-25.40625 17.51562,-53.58203 1.92578,-109.96484 8.69141,-164.83593 0.53906,-41.98829 4.63671,-87.44532 -14.53516,-126.19922 -24.16406,-39.72657 -94.64844,-39.80078 -117.12891,1.54297 -14.76172,42.67187 4.45313,88.07421 -1.3125,131.94921 -0.44531,34.3125 -13.83593,66.44922 -17.29687,100.25 z m 0,0"
       id="path4"
       inkscape:label="lower_body" />
    <path
       style="fill:#bab000;fill-opacity:1;fill-rule:evenodd;stroke:none"
       d="m 346.15625,820.77734 c -1.30469,81.45703 9.29687,162.83594 26.02344,242.40626 7.5664,22.5391 28.64453,52.625 55.92968,44.3047 32.53516,-18.4102 34.40235,-61.5117 44.14844,-93.8399 21.9336,-77.41012 36.66797,-157.5859 31.10156,-238.36324 -3.4375,-38.72266 1.28907,-84.13672 -25.36718,-115.77344 -30.54688,-28.64844 -80.23438,-6.22266 -98.83203,25.82031 -25.77344,39.78125 -30.84766,89.21484 -33.00391,135.44531 z m 0,0"
       id="path5"
       inkscape:label="right_upper_leg" />
    <path
       style="fill:#000021;fill-opacity:1;fill-rule:evenodd;stroke:none"
       d="m 310.59766,1197.8906 c 4.90234,65.0703 17.90625,129.4649 18.75,194.9532 4.33203,31.4843 -6.35157,67.746 11.1289,96.1718 11.01172,11.8672 23.4336,31.461 42.27344,27 20.125,-15.6992 10.41406,-46.4062 11.76953,-68.4062 -3.84375,-77.7656 10.875,-155.1719 27.10547,-230.8828 11.61719,-52.3555 31.26562,-107.0313 18.35937,-160.8789 -5.53125,-26.3438 -41.84765,-40.6172 -60.35546,-18.4024 -25.39454,31.6875 -38.39063,71.6055 -56.71875,107.5391 -7.51172,16.707 -12.07422,34.5312 -12.3125,52.9062 z m 0,0"
       id="path6"
       inkscape:label="right_lower_leg" />
    <path
       style="fill:#0000a8;fill-opacity:1;fill-rule:evenodd;stroke:none"
       d="m 329.00391,758.44141 c -0.77735,25.30078 13.86718,53.51953 41.02734,56.89453 34.63672,5.59765 68.60156,-16.05078 103.32031,-4.19922 18.02344,5.89844 43.82422,2.02344 46.94531,-20.53125 4.53907,-41.36719 -11.96093,-81.5586 -11.40625,-122.9961 -1.77734,-22.53906 4.17188,-51.5664 -19.40234,-65.24609 -32.33203,-22.37109 -77.71875,-10.18359 -101.87891,18.67578 -37.41406,33.14453 -52.28515,84.15235 -58.39453,132.08203 l -0.125,3.19532 z m 0,0"
       id="path7"
       inkscape:label="abdomen" />
    <path
       style="fill:#000cf0;fill-opacity:1;fill-rule:evenodd;stroke:none"
       d="m 319.65625,1546.0469 c -2.48047,19.6484 18.52734,29.7422 35.28906,25.2226 47.94141,-0.5312 96.23047,14.125 144.00391,6.2305 16.91015,-2.6641 18.10937,-26.5469 3,-32.8945 -32.39063,-20.1953 -79.97656,-22.0664 -97,-61.6407 -12.95313,-21.4882 -17.64453,-49.3867 -37.85547,-65.5195 -23.46094,-5.539 -33.81641,24.2227 -33.98828,42.7735 -1.27344,28.1992 -6.3711,55.7695 -13.20703,82.9687 z m 0,0"
       id="path8"
       inkscape:label="right_feet" />
    <path
       style="fill:#0cff00;fill-opacity:1;fill-rule:evenodd;stroke:none"
       d="m 420.47266,1086.2344 c -1.89454,13.8633 1.76171,42.4844 21.39453,37.8867 20.8789,-9.0703 25.29687,-37.043 24.49609,-57.5078 -0.0781,-15.5078 -20.77734,-32.4688 -32.47656,-16.8516 -9.17969,9.7422 -11.4375,23.7852 -13.41406,36.4727 z m 0,0"
       id="path9"
       inkscape:label="right_knee" />
    <path
       style="fill:#00ffff"
       d="m 337.95973,1419.125 c 4.5877,-8.5636 14.98646,-16.5156 25.07946,-16.5155 10.09299,0 19.8799,7.9519 25.38514,18.3507 5.50523,10.3989 6.7286,23.2442 5.81102,33.0313 -0.91757,9.7872 -3.97597,16.5157 -8.25786,22.021 -4.28189,5.5052 -9.78703,9.787 -15.904,9.1752 -6.11697,-0.6117 -12.84548,-6.1169 -18.65658,-13.4572 -5.8111,-7.3404 -10.70454,-16.5156 -13.76303,-25.6911 -3.05848,-9.1755 -4.28184,-18.3507 0.30585,-26.9144 z"
       id="path15"
       inkscape:path-effect="#path-effect15"
       inkscape:original-d="m 332.14866,1418.5134 c 10.39877,-7.952 20.79753,-15.904 31.19629,-23.856 9.78726,7.9521 19.57414,15.904 29.36121,23.856 1.2234,12.8457 2.44676,25.691 3.67015,38.5365 -3.05852,6.7288 -6.11692,13.4573 -9.17538,20.1859 -5.50534,4.2819 -11.01045,8.5637 -16.51568,12.8455 -6.72875,-5.5053 -13.45722,-11.0105 -20.18583,-16.5157 -4.89363,-9.1755 -9.78707,-18.3507 -14.6806,-27.5261 -1.22341,-9.1756 -2.44677,-18.3508 -3.67016,-27.5261 z"
       inkscape:label="right_ankle" />
    <path
       style="fill:#000000;fill-opacity:1;fill-rule:evenodd;stroke:none"
       d="m 296.52734,299.97266 c -2.90625,32.21484 25.07032,56.92968 50.27735,71.88281 21.1914,12.19531 48.55078,5.92578 61.78515,-14.87891 C 444.28125,328.48047 422,265.04687 380.17969,255.84375 c -25.08594,-7.48828 -62.26563,-14.01563 -75.59375,15.56641 -4.46094,9.02343 -6.75,18.6289 -8.0586,28.5625 z m 0,0"
       id="path10"
       inkscape:label="right_upper_shoulder" />
    <path
       style="fill:#00ff00;fill-opacity:1;fill-rule:evenodd;stroke:none"
       d="m 282.25,449.51172 c 4.1875,34.3789 -4.80078,71.26562 8.51953,103.92578 13.19141,22.86328 46.69531,14.07422 56.94922,-6.91016 15.11328,-30.71484 28.83594,-62.65625 39.39453,-95.27343 8.90234,-40.36329 2.58594,-85.31641 -18.04297,-121.14063 -14.8789,-24.75391 -58.08984,-28.67969 -69.48437,1.34766 C 285.07812,368.75 280.74609,409.73047 282.25,449.51172 Z m 0,0"
       id="path11"
       inkscape:label="right_upper_arm" />
    <path
       style="fill:#000000;fill-opacity:1;fill-rule:evenodd;stroke:none"
       d="m 277.96094,539.07422 c -2.07032,19.20312 21.70703,42.99219 39.09765,27.12109 16.83203,-18.33984 -6.77343,-57.55469 -31.28515,-43.71094 -6.03516,3.69141 -7.14844,10.14454 -7.8125,16.58985 z m 0,0"
       id="path12"
       inkscape:label="right_elbow" />
    <path
       style="fill:#000000;fill-opacity:1;fill-rule:nonzero;stroke:none"
       d="m 338.42578,847.20312 c 10.32031,4.03516 18.22266,2.4961 16.22266,-9.5 1.84765,-13.89843 4.01562,-28.53515 5.86328,-43.05468 -19.90235,-10.14844 -17.21094,8.23437 -19.3086,21.64453 -1.05468,10.32031 -2.59375,20.51953 -2.77734,30.91015 z m 23.91016,-25.16796 c 0.38281,14.29296 0.0117,28.71484 0.66797,43.04687 17.62109,6.04688 17.20703,-6.05859 15.16796,-18.98437 4.76954,-4.20313 0.3125,-17.23829 1.91407,-24.60157 -1.39063,-8.45703 6.63672,-27.9375 -10.05078,-22.22656 -14.6211,-5.63281 -4.42969,16.06641 -7.69922,22.76563 z m 20.48437,-21.72657 c 3.04297,24.86719 6.50391,49.69141 10.57813,74.61719 22.05468,4.68359 13.53515,-13.39062 11.59375,-26.22266 5.03125,-4.36718 -3.26172,-18.14843 -1.47266,-25.21093 -1.70312,-14.39453 1.64844,-35.19141 -20.03516,-24.28125 -2.41406,3.97656 3.28125,-5.41016 -0.66406,1.09765 z m 20.83985,-1.83203 c 5.22265,21.21875 9.98437,42.35547 16.39453,63.45313 20.84765,1.92578 13.27734,-13.24219 8.96875,-25.6836 4.32812,-5.51953 -3.25782,-17.16797 -3.94532,-25.60937 -0.68359,-15.26953 -4.41406,-25.70703 -20.99218,-15.75 z m 11.85546,-31.07031 c 7.47657,16.19531 15.7461,27.52344 23.40625,43.91016 21.28907,-2.97266 12.97657,-16.38282 4.6875,-28.38282 -4.10156,-4.45312 -6.40625,-30.39062 -16.99218,-21.28515 -3.69922,1.91797 -7.40235,3.83593 -11.10157,5.75781 z m -70.72656,21.53125 c -1.77344,21.37891 24.125,21.16406 38.71094,18.85547 11.65234,-3.07813 37.75781,4.49609 36.82812,-14.90625 -5.2539,-16.03125 20.32422,-20.65625 10.9961,-36.57813 -10.5586,-20.30078 -31.4961,-47.49609 -57.59766,-41.5 -28.35937,10.53516 -27.46875,49.52735 -28.9375,74.12891 z m 0,0"
       id="path14"
       inkscape:label="right_hand" />
    <path
       style="fill:#00ffa8;fill-opacity:1;fill-rule:evenodd;stroke:none"
       d="m 291.37109,539.13672 c -1.90234,67.07812 45,120.71484 63.89844,182.30078 2.75,20.18359 26.51563,22.52344 40.78906,13.85547 8.38282,-15.60547 -3.14843,-35.14453 -3.16406,-51.77735 -10.64062,-48.83593 -3.46484,-102.25 -29.89844,-146.82421 -5.78125,-22.55469 -28.70312,-52.26172 -54.80078,-40.66797 -15.19922,8.12109 -16.86328,27.83984 -16.82422,43.11328 z m 0,0"
       id="path13"
       inkscape:label="right_lower_arm" />
  </g>
</svg>
